# Blender v2.80 (sub 75) OBJ File: ''
# www.blender.org
mtllib rabbit.mtl
o body.001
v 0.187500 0.338932 -0.159881
v -0.187500 0.338932 -0.159881
v -0.187500 0.625404 -0.035022
v 0.187500 0.625404 -0.035022
v 0.187500 0.089214 0.413063
v 0.187500 0.375686 0.537923
v -0.187500 0.089214 0.413063
v -0.187500 0.375686 0.537923
vt 0.250000 0.531250
vt 0.156250 0.531250
vt 0.156250 0.687500
vt 0.250000 0.687500
vt 0.406250 0.531250
vt 0.406250 0.687500
vt 0.500000 0.531250
vt 0.500000 0.687500
vt 0.000000 0.531250
vt 0.000000 0.687500
vt 0.156250 1.000000
vt 0.250000 1.000000
vt 0.250000 0.687500
vt 0.343750 0.687500
vt 0.343750 1.000000
vt 0.250000 1.000000
vn 0.0000 0.3995 -0.9167
vn 1.0000 0.0000 0.0000
vn 0.0000 -0.3995 0.9167
vn -1.0000 0.0000 0.0000
vn 0.0000 0.9167 0.3995
vn 0.0000 -0.9167 -0.3995
usemtl m_0.001
s 1
f 1/1/1 2/2/1 3/3/1 4/4/1
f 5/5/2 1/1/2 4/4/2 6/6/2
f 7/7/3 5/5/3 6/6/3 8/8/3
f 2/2/4 7/9/4 8/10/4 3/3/4
f 8/11/5 6/12/5 4/4/5 3/3/5
f 2/13/6 1/14/6 5/15/6 7/16/6
o rearFootLeft
v -0.125000 0.000000 0.024910
v -0.250000 0.000000 0.024910
v -0.250000 0.062500 0.024910
v -0.125000 0.062500 0.024910
v -0.125000 -0.000000 0.462410
v -0.125000 0.062500 0.462410
v -0.250000 -0.000000 0.462410
v -0.250000 0.062500 0.462410
vt 0.265625 0.000000
vt 0.234375 0.000000
vt 0.234375 0.031250
vt 0.265625 0.031250
vt 0.375000 0.000000
vt 0.375000 0.031250
vt 0.406250 0.000000
vt 0.406250 0.031250
vt 0.125000 0.000000
vt 0.125000 0.031250
vt 0.234375 0.250000
vt 0.265625 0.250000
vt 0.265625 0.031250
vt 0.296875 0.031250
vt 0.296875 0.250000
vt 0.265625 0.250000
vn 0.0000 0.0000 -1.0000
vn 1.0000 0.0000 0.0000
vn 0.0000 0.0000 1.0000
vn -1.0000 0.0000 0.0000
vn 0.0000 1.0000 0.0000
vn 0.0000 -1.0000 -0.0000
usemtl m_0.001
s 1
f 9/17/7 10/18/7 11/19/7 12/20/7
f 13/21/8 9/17/8 12/20/8 14/22/8
f 15/23/9 13/21/9 14/22/9 16/24/9
f 10/18/10 15/25/10 16/26/10 11/19/10
f 16/27/11 14/28/11 12/20/11 11/19/11
f 10/29/12 9/30/12 13/31/12 15/32/12
o rearFootRight
v 0.250000 0.000000 0.024910
v 0.125000 0.000000 0.024910
v 0.125000 0.062500 0.024910
v 0.250000 0.062500 0.024910
v 0.250000 -0.000000 0.462410
v 0.250000 0.062500 0.462410
v 0.125000 -0.000000 0.462410
v 0.125000 0.062500 0.462410
vt 0.546875 0.000000
vt 0.515625 0.000000
vt 0.515625 0.031250
vt 0.546875 0.031250
vt 0.656250 0.000000
vt 0.656250 0.031250
vt 0.687500 0.000000
vt 0.687500 0.031250
vt 0.406250 0.000000
vt 0.406250 0.031250
vt 0.515625 0.250000
vt 0.546875 0.250000
vt 0.546875 0.031250
vt 0.578125 0.031250
vt 0.578125 0.250000
vt 0.546875 0.250000
vn 0.0000 0.0000 -1.0000
vn 1.0000 0.0000 0.0000
vn 0.0000 0.0000 1.0000
vn -1.0000 0.0000 0.0000
vn 0.0000 1.0000 0.0000
vn 0.0000 -1.0000 -0.0000
usemtl m_0.001
s 1
f 17/33/13 18/34/13 19/35/13 20/36/13
f 21/37/14 17/33/14 20/36/14 22/38/14
f 23/39/15 21/37/15 22/38/15 24/40/15
f 18/34/16 23/41/16 24/42/16 19/35/16
f 24/43/17 22/44/17 20/36/17 19/35/17
f 18/45/18 17/46/18 21/47/18 23/48/18
o haunchLeft
v -0.125000 0.192077 0.179745
v -0.250000 0.192077 0.179745
v -0.250000 0.417931 0.286937
v -0.125000 0.417931 0.286937
v -0.125000 0.058088 0.462062
v -0.125000 0.283942 0.569254
v -0.250000 0.058088 0.462062
v -0.250000 0.283942 0.569254
vt 0.359375 0.250000
vt 0.328125 0.250000
vt 0.328125 0.375000
vt 0.359375 0.375000
vt 0.437500 0.250000
vt 0.437500 0.375000
vt 0.468750 0.250000
vt 0.468750 0.375000
vt 0.250000 0.250000
vt 0.250000 0.375000
vt 0.328125 0.531250
vt 0.359375 0.531250
vt 0.359375 0.375000
vt 0.390625 0.375000
vt 0.390625 0.531250
vt 0.359375 0.531250
vn 0.0000 0.4288 -0.9034
vn 1.0000 0.0000 0.0000
vn 0.0000 -0.4288 0.9034
vn -1.0000 0.0000 0.0000
vn 0.0000 0.9034 0.4288
vn 0.0000 -0.9034 -0.4288
usemtl m_0.001
s 1
f 25/49/19 26/50/19 27/51/19 28/52/19
f 29/53/20 25/49/20 28/52/20 30/54/20
f 31/55/21 29/53/21 30/54/21 32/56/21
f 26/50/22 31/57/22 32/58/22 27/51/22
f 32/59/23 30/60/23 28/52/23 27/51/23
f 26/61/24 25/62/24 29/63/24 31/64/24
o haunchRight
v 0.250000 0.192077 0.179745
v 0.125000 0.192077 0.179745
v 0.125000 0.417931 0.286937
v 0.250000 0.417931 0.286937
v 0.250000 0.058088 0.462062
v 0.250000 0.283942 0.569254
v 0.125000 0.058088 0.462062
v 0.125000 0.283942 0.569254
vt 0.578125 0.250000
vt 0.546875 0.250000
vt 0.546875 0.375000
vt 0.578125 0.375000
vt 0.656250 0.250000
vt 0.656250 0.375000
vt 0.687500 0.250000
vt 0.687500 0.375000
vt 0.468750 0.250000
vt 0.468750 0.375000
vt 0.546875 0.531250
vt 0.578125 0.531250
vt 0.578125 0.375000
vt 0.609375 0.375000
vt 0.609375 0.531250
vt 0.578125 0.531250
vn 0.0000 0.4288 -0.9034
vn 1.0000 0.0000 0.0000
vn 0.0000 -0.4288 0.9034
vn -1.0000 0.0000 0.0000
vn 0.0000 0.9034 0.4288
vn 0.0000 -0.9034 -0.4288
usemtl m_0.001
s 1
f 33/65/25 34/66/25 35/67/25 36/68/25
f 37/69/26 33/65/26 36/68/26 38/70/26
f 39/71/27 37/69/27 38/70/27 40/72/27
f 34/66/28 39/73/28 40/74/28 35/67/28
f 40/75/29 38/76/29 36/68/29 35/67/29
f 34/77/30 33/78/30 37/79/30 39/80/30
o frontLegLeft
v -0.125000 0.000000 -0.137821
v -0.250000 0.000000 -0.137821
v -0.250000 0.437500 -0.137821
v -0.125000 0.437500 -0.137821
v -0.125000 0.000000 -0.012821
v -0.125000 0.437500 -0.012821
v -0.250000 0.000000 -0.012821
v -0.250000 0.437500 -0.012821
vt 0.187500 0.250000
vt 0.156250 0.250000
vt 0.156250 0.468750
vt 0.187500 0.468750
vt 0.218750 0.250000
vt 0.218750 0.468750
vt 0.250000 0.250000
vt 0.250000 0.468750
vt 0.125000 0.250000
vt 0.125000 0.468750
vt 0.156250 0.531250
vt 0.187500 0.531250
vt 0.187500 0.468750
vt 0.218750 0.468750
vt 0.218750 0.531250
vt 0.187500 0.531250
vn 0.0000 0.0000 -1.0000
vn 1.0000 -0.0000 0.0000
vn 0.0000 -0.0000 1.0000
vn -1.0000 0.0000 0.0000
vn 0.0000 1.0000 0.0000
vn 0.0000 -1.0000 -0.0000
usemtl m_0.001
s 1
f 41/81/31 42/82/31 43/83/31 44/84/31
f 45/85/32 41/81/32 44/84/32 46/86/32
f 47/87/33 45/85/33 46/86/33 48/88/33
f 42/82/34 47/89/34 48/90/34 43/83/34
f 48/91/35 46/92/35 44/84/35 43/83/35
f 42/93/36 41/94/36 45/95/36 47/96/36
o frontLegRight
v 0.250000 0.000000 -0.137821
v 0.125000 0.000000 -0.137821
v 0.125000 0.437500 -0.137821
v 0.250000 0.437500 -0.137821
v 0.250000 0.000000 -0.012821
v 0.250000 0.437500 -0.012821
v 0.125000 0.000000 -0.012821
v 0.125000 0.437500 -0.012821
vt 0.062500 0.250000
vt 0.031250 0.250000
vt 0.031250 0.468750
vt 0.062500 0.468750
vt 0.093750 0.250000
vt 0.093750 0.468750
vt 0.125000 0.250000
vt 0.125000 0.468750
vt 0.000000 0.250000
vt 0.000000 0.468750
vt 0.031250 0.531250
vt 0.062500 0.531250
vt 0.062500 0.468750
vt 0.093750 0.468750
vt 0.093750 0.531250
vt 0.062500 0.531250
vn 0.0000 0.0000 -1.0000
vn 1.0000 0.0000 0.0000
vn 0.0000 -0.0000 1.0000
vn -1.0000 -0.0000 0.0000
vn 0.0000 1.0000 0.0000
vn 0.0000 -1.0000 -0.0000
usemtl m_0.001
s 1
f 49/97/37 50/98/37 51/99/37 52/100/37
f 53/101/38 49/97/38 52/100/38 54/102/38
f 55/103/39 53/101/39 54/102/39 56/104/39
f 50/98/40 55/105/40 56/106/40 51/99/40
f 56/107/41 54/108/41 52/100/41 51/99/41
f 50/109/42 49/110/42 53/111/42 55/112/42
o head.001
v 0.156250 0.562887 -0.375000
v -0.156250 0.562887 -0.375000
v -0.156250 0.812887 -0.375000
v 0.156250 0.812887 -0.375000
v 0.156250 0.562887 -0.062500
v 0.156250 0.812887 -0.062500
v -0.156250 0.562887 -0.062500
v -0.156250 0.812887 -0.062500
vt 0.656250 0.718750
vt 0.578125 0.718750
vt 0.578125 0.843750
vt 0.656250 0.843750
vt 0.734375 0.718750
vt 0.734375 0.843750
vt 0.812500 0.718750
vt 0.812500 0.843750
vt 0.500000 0.718750
vt 0.500000 0.843750
vt 0.578125 1.000000
vt 0.656250 1.000000
vt 0.656250 0.843750
vt 0.734375 0.843750
vt 0.734375 1.000000
vt 0.656250 1.000000
vn 0.0000 0.0000 -1.0000
vn 1.0000 0.0000 0.0000
vn 0.0000 -0.0000 1.0000
vn -1.0000 0.0000 0.0000
vn 0.0000 1.0000 0.0000
vn 0.0000 -1.0000 -0.0000
usemtl m_0.001
s 1
f 57/113/43 58/114/43 59/115/43 60/116/43
f 61/117/44 57/113/44 60/116/44 62/118/44
f 63/119/45 61/117/45 62/118/45 64/120/45
f 58/114/46 63/121/46 64/122/46 59/115/46
f 64/123/47 62/124/47 60/116/47 59/115/47
f 58/125/48 57/126/48 61/127/48 63/128/48
o earRight
v 0.156250 0.812887 -0.125000
v 0.031250 0.812887 -0.125000
v 0.031250 1.125387 -0.125000
v 0.156250 1.125387 -0.125000
v 0.156250 0.812887 -0.062500
v 0.156250 1.125387 -0.062500
v 0.031250 0.812887 -0.062500
v 0.031250 1.125387 -0.062500
vt 0.953125 0.812500
vt 0.921875 0.812500
vt 0.921875 0.968750
vt 0.953125 0.968750
vt 0.968750 0.812500
vt 0.968750 0.968750
vt 1.000000 0.812500
vt 1.000000 0.968750
vt 0.906250 0.812500
vt 0.906250 0.968750
vt 0.921875 1.000000
vt 0.953125 1.000000
vt 0.953125 0.968750
vt 0.984375 0.968750
vt 0.984375 1.000000
vt 0.953125 1.000000
vn 0.0000 0.0000 -1.0000
vn 1.0000 0.0000 0.0000
vn 0.0000 -0.0000 1.0000
vn -1.0000 0.0000 0.0000
vn 0.0000 1.0000 0.0000
vn 0.0000 -1.0000 0.0000
usemtl m_0.001
s 1
f 65/129/49 66/130/49 67/131/49 68/132/49
f 69/133/50 65/129/50 68/132/50 70/134/50
f 71/135/51 69/133/51 70/134/51 72/136/51
f 66/130/52 71/137/52 72/138/52 67/131/52
f 72/139/53 70/140/53 68/132/53 67/131/53
f 66/141/54 65/142/54 69/143/54 71/144/54
o earLeft
v -0.031250 0.812887 -0.125000
v -0.156250 0.812887 -0.125000
v -0.156250 1.125387 -0.125000
v -0.031250 1.125387 -0.125000
v -0.031250 0.812887 -0.062500
v -0.031250 1.125387 -0.062500
v -0.156250 0.812887 -0.062500
v -0.156250 1.125387 -0.062500
vt 0.859375 0.812500
vt 0.828125 0.812500
vt 0.828125 0.968750
vt 0.859375 0.968750
vt 0.875000 0.812500
vt 0.875000 0.968750
vt 0.906250 0.812500
vt 0.906250 0.968750
vt 0.812500 0.812500
vt 0.812500 0.968750
vt 0.828125 1.000000
vt 0.859375 1.000000
vt 0.859375 0.968750
vt 0.890625 0.968750
vt 0.890625 1.000000
vt 0.859375 1.000000
vn 0.0000 0.0000 -1.0000
vn 1.0000 -0.0000 0.0000
vn 0.0000 -0.0000 1.0000
vn -1.0000 0.0000 0.0000
vn 0.0000 1.0000 0.0000
vn 0.0000 -1.0000 0.0000
usemtl m_0.001
s 1
f 73/145/55 74/146/55 75/147/55 76/148/55
f 77/149/56 73/145/56 76/148/56 78/150/56
f 79/151/57 77/149/57 78/150/57 80/152/57
f 74/146/58 79/153/58 80/154/58 75/147/58
f 80/155/59 78/156/59 76/148/59 75/147/59
f 74/157/60 73/158/60 77/159/60 79/160/60
o tail
v 0.093750 0.142833 0.368255
v -0.093750 0.142833 0.368255
v -0.093750 0.314716 0.443170
v 0.093750 0.314716 0.443170
v 0.093750 0.092889 0.482844
v 0.093750 0.264773 0.557759
v -0.093750 0.092889 0.482844
v -0.093750 0.264773 0.557759
vt 0.890625 0.656250
vt 0.843750 0.656250
vt 0.843750 0.750000
vt 0.890625 0.750000
vt 0.921875 0.656250
vt 0.921875 0.750000
vt 0.968750 0.656250
vt 0.968750 0.750000
vt 0.812500 0.656250
vt 0.812500 0.750000
vt 0.843750 0.812500
vt 0.890625 0.812500
vt 0.890625 0.750000
vt 0.937500 0.750000
vt 0.937500 0.812500
vt 0.890625 0.812500
vn 0.0000 0.3995 -0.9167
vn 1.0000 0.0000 0.0000
vn 0.0000 -0.3995 0.9167
vn -1.0000 0.0000 0.0000
vn 0.0000 0.9167 0.3995
vn 0.0000 -0.9167 -0.3995
usemtl m_0.001
s 1
f 81/161/61 82/162/61 83/163/61 84/164/61
f 85/165/62 81/161/62 84/164/62 86/166/62
f 87/167/63 85/165/63 86/166/63 88/168/63
f 82/162/64 87/169/64 88/170/64 83/163/64
f 88/171/65 86/172/65 84/164/65 83/163/65
f 82/173/66 81/174/66 85/175/66 87/176/66
o nose
v 0.031250 0.656637 -0.406250
v -0.031250 0.656637 -0.406250
v -0.031250 0.719137 -0.406250
v 0.031250 0.719137 -0.406250
v 0.031250 0.656637 -0.343750
v 0.031250 0.719137 -0.343750
v -0.031250 0.656637 -0.343750
v -0.031250 0.719137 -0.343750
vt 0.531250 0.656250
vt 0.515625 0.656250
vt 0.515625 0.687500
vt 0.531250 0.687500
vt 0.546875 0.656250
vt 0.546875 0.687500
vt 0.562500 0.656250
vt 0.562500 0.687500
vt 0.500000 0.656250
vt 0.500000 0.687500
vt 0.515625 0.718750
vt 0.531250 0.718750
vt 0.531250 0.687500
vt 0.546875 0.687500
vt 0.546875 0.718750
vt 0.531250 0.718750
vn 0.0000 0.0000 -1.0000
vn 1.0000 0.0000 0.0000
vn 0.0000 0.0000 1.0000
vn -1.0000 0.0000 0.0000
vn 0.0000 1.0000 0.0000
vn 0.0000 -1.0000 0.0000
usemtl m_0.001
s 1
f 89/177/67 90/178/67 91/179/67 92/180/67
f 93/181/68 89/177/68 92/180/68 94/182/68
f 95/183/69 93/181/69 94/182/69 96/184/69
f 90/178/70 95/185/70 96/186/70 91/179/70
f 96/187/71 94/188/71 92/180/71 91/179/71
f 90/189/72 89/190/72 93/191/72 95/192/72
